# xmcd CD database file
#
# Track frame offsets:
#	150
#	14325
#	28605
#	52225
#	69200
#	85512
#	102470
#	121220
#	139360
#	155055
#	176685
#	210407
#
# Disc length: 2996 seconds
#
# Revision: 1
# Processed by: cddbd v1.5.2PL0 Copyright (c) Steve Scherf et al.
# Submitted via: CDex 1.70beta2
#
DISCID=a20bb20c
DTITLE=Nanci Griffith - One fair summer evening
DYEAR=1988
DGENRE=Country
TTITLE0=Once in a very blue moon
TTITLE1=Looking for the time (Workin' Girl)
TTITLE2=Deadwood, South Dakota
TTITLE3=More then a whisper
TTITLE4=I would bring you Ireland
TTITLE5=Roseville fair
TTITLE6=Working in corners
TTITLE7=Trouble in the fields
TTITLE8=The wing and the wheel
TTITLE9=From a distance
TTITLE10=Love at the five and dime
TTITLE11=Spin on a red brick floor
EXTD=YEAR: 1988
EXTT0=
EXTT1=
EXTT2=
EXTT3=
EXTT4=
EXTT5=
EXTT6=
EXTT7=
EXTT8=
EXTT9=
EXTT10=
EXTT11=
PLAYORDER=
